<?xml version="1.0" encoding="UTF-8"?>
<!DOCTYPE svg PUBLIC "-//W3C//DTD SVG 1.1//EN" "http://www.w3.org/Graphics/SVG/1.1/DTD/svg11.dtd">
<svg xmlns="http://www.w3.org/2000/svg" version="1.1" width="960px" height="90px" style="shape-rendering:geometricPrecision; text-rendering:geometricPrecision; image-rendering:optimizeQuality; fill-rule:evenodd; clip-rule:evenodd" xmlns:xlink="http://www.w3.org/1999/xlink">
<g><path style="opacity:0.989" fill="#fdbccd" d="M 957.5,-0.5 C 958.167,-0.5 958.833,-0.5 959.5,-0.5C 959.5,29.5 959.5,59.5 959.5,89.5C 639.5,89.5 319.5,89.5 -0.5,89.5C -0.5,71.1667 -0.5,52.8333 -0.5,34.5C 18.0569,19.6895 38.7235,15.8562 61.5,23C 86.6351,31.9339 111.968,40.2673 137.5,48C 184.275,61.3054 231.942,66.972 280.5,65C 300.79,63.3961 320.79,60.0628 340.5,55C 372.27,44.9464 403.937,34.6131 435.5,24C 481.386,14.9101 526.719,17.2435 571.5,31C 609.25,42.8058 646.917,54.8058 684.5,67C 723.477,75.3753 762.477,75.3753 801.5,67C 858.331,55.0705 910.331,32.5705 957.5,-0.5 Z"/></g>
</svg>
